<svg width="71" height="71" viewBox="0 0 71 71" fill="none" xmlns="http://www.w3.org/2000/svg">
<path fill-rule="evenodd" clip-rule="evenodd" d="M8.32581 2.25726C9.09865 1.48559 10.0267 0.886966 11.0484 0.501071C12.07 0.115176 13.1621 -0.0491802 14.2521 0.0188937C15.3421 0.0869675 16.4052 0.385917 17.371 0.895931C18.3367 1.40595 19.183 2.11538 19.8539 2.97722L27.7821 13.1625C29.2353 15.0309 29.7477 17.4646 29.1735 19.7613L26.7574 29.4343C26.6325 29.9353 26.6393 30.4601 26.777 30.9577C26.9148 31.4553 27.1789 31.9089 27.5436 32.2743L38.3959 43.1266C38.7618 43.4921 39.2161 43.7566 39.7146 43.8944C40.213 44.0322 40.7387 44.0385 41.2404 43.9128L50.9089 41.4968C52.0423 41.2134 53.2254 41.1914 54.3686 41.4324C55.5117 41.6734 56.5852 42.1712 57.5077 42.8881L67.693 50.812C71.3546 53.6609 71.6903 59.0715 68.413 62.3444L63.8459 66.9115C60.5774 70.18 55.6924 71.6154 51.1386 70.0121C39.4833 65.9112 28.9008 59.2386 20.1763 50.4895C11.4277 41.7663 4.75524 31.1854 0.653695 19.5317C-0.945214 14.9823 0.49027 10.0928 3.75876 6.82431L8.32581 2.25726Z" fill="#40CD85"/>
</svg>
