<svg width="28" height="28" viewBox="0 0 28 28" fill="none" xmlns="http://www.w3.org/2000/svg">
<path d="M5.33751 5.33751C5.66568 5.00944 6.11072 4.82513 6.57476 4.82513C7.0388 4.82513 7.48384 5.00944 7.81201 5.33751L14 11.5255L20.188 5.33751C20.5181 5.01873 20.9601 4.84234 21.419 4.84633C21.8778 4.85032 22.3167 5.03436 22.6412 5.35883C22.9657 5.68329 23.1497 6.12221 23.1537 6.58106C23.1577 7.0399 22.9813 7.48196 22.6625 7.81201L16.4745 14L22.6625 20.188C22.9813 20.5181 23.1577 20.9601 23.1537 21.419C23.1497 21.8778 22.9657 22.3167 22.6412 22.6412C22.3167 22.9657 21.8778 23.1497 21.419 23.1537C20.9601 23.1577 20.5181 22.9813 20.188 22.6625L14 16.4745L7.81201 22.6625C7.48196 22.9813 7.0399 23.1577 6.58106 23.1537C6.12221 23.1497 5.68329 22.9657 5.35883 22.6412C5.03436 22.3167 4.85032 21.8778 4.84633 21.419C4.84234 20.9601 5.01873 20.5181 5.33751 20.188L11.5255 14L5.33751 7.81201C5.00944 7.48384 4.82513 7.0388 4.82513 6.57476C4.82513 6.11072 5.00944 5.66568 5.33751 5.33751V5.33751Z" fill="white"/>
</svg>
