<svg width="70" height="61" viewBox="0 0 70 61" fill="none" xmlns="http://www.w3.org/2000/svg">
<path d="M12.8966 38.2723L4.35552 30.4272L13.2108 21.7299C14.9247 20.0465 16.1387 17.9212 16.7179 15.5897L19.6277 3.87792L30.866 7.64738C33.5486 8.54715 36.4515 8.54715 39.134 7.64738L50.0734 3.97818L51.8522 15.6127C52.3524 18.884 54.0812 21.8413 56.6864 23.882L65.2154 30.5629L56.4203 37.8335C53.9783 39.8522 52.3576 42.6932 51.8627 45.8227L50.0728 57.1421L38.7274 53.7465C36.2958 53.0187 33.7042 53.0187 31.2726 53.7465L19.6853 57.2145L16.7516 44.8461C16.1521 42.3189 14.8094 40.0292 12.8966 38.2723Z" fill="white" stroke="#40CD85" stroke-width="6"/>
</svg>
