<svg width="90" height="72" viewBox="0 0 90 72" fill="none" xmlns="http://www.w3.org/2000/svg">
<path d="M80.3333 0.666504H9.66665C4.80831 0.666504 0.87748 4.6415 0.87748 9.49984L0.833313 62.4998C0.833313 67.3582 4.80831 71.3332 9.66665 71.3332H80.3333C85.1916 71.3332 89.1666 67.3582 89.1666 62.4998V9.49984C89.1666 4.6415 85.1916 0.666504 80.3333 0.666504ZM78.5666 19.4373L47.3408 38.959C45.9275 39.8423 44.0725 39.8423 42.6591 38.959L11.4333 19.4373C10.9904 19.1887 10.6026 18.8528 10.2933 18.45C9.98402 18.0472 9.75967 17.5858 9.63385 17.0937C9.50804 16.6017 9.48337 16.0892 9.56134 15.5874C9.63931 15.0855 9.8183 14.6047 10.0875 14.174C10.3566 13.7433 10.7104 13.3717 11.1274 13.0817C11.5443 12.7917 12.0157 12.5893 12.5132 12.4868C13.0106 12.3843 13.5236 12.3838 14.0213 12.4853C14.5189 12.5868 14.9908 12.7882 15.4083 13.0773L45 31.5832L74.5916 13.0773C75.0092 12.7882 75.481 12.5868 75.9787 12.4853C76.4763 12.3838 76.9894 12.3843 77.4868 12.4868C77.9842 12.5893 78.4557 12.7917 78.8726 13.0817C79.2895 13.3717 79.6433 13.7433 79.9125 14.174C80.1817 14.6047 80.3606 15.0855 80.4386 15.5874C80.5166 16.0892 80.4919 16.6017 80.3661 17.0937C80.2403 17.5858 80.0159 18.0472 79.7066 18.45C79.3973 18.8528 79.0095 19.1887 78.5666 19.4373Z" fill="#40CD85"/>
</svg>
